<svg id="Layer_1" data-name="Layer 1" xmlns="http://www.w3.org/2000/svg" viewBox="0 0 688.57 219.96"><defs><style>.cls-1{fill:#231f20;}</style></defs><path class="cls-1" d="M185.08,100.9V49.12h7.13V71l18-21.86h9.23L199.23,73.78l20.33,27.12h-9l-16-21.39-2.34,2.8V100.9Z"/><path class="cls-1" d="M253.62,100.9l-9.94-22.32H234.1V100.9H227V49.12l26.3.12q7.12,1.51,7.94,8.07l.24,1.87h-.12v9.34h.12l-.24,1.87q-.81,6.56-7.94,8.07l-1.76.12,9.94,22.32Zm-2.34-29.45,1.05-.24A2.83,2.83,0,0,0,254,69.58l.23-1.06V59.18L254,58.12a2.86,2.86,0,0,0-1.64-1.63l-1.05-.12v-.12H234.1v15.2Z"/><path class="cls-1" d="M303.33,100.9h-7.24V88H276V100.9h-7.13V85.59L282.65,49h7l13.67,36.58Zm-9.35-20-8-21.15L278.2,80.91Z"/><path class="cls-1" d="M324.41,100.9V56.25H310.74V49.12h34.48v7.13H331.54V100.9Z"/><path class="cls-1" d="M352.63,100.9V49.12H387.1v7.13H359.75v15.2h20.11v7.13H359.75V93.77H387.1v7.13Z"/><path class="cls-1" d="M404.68,100.9l-2-.24a8.52,8.52,0,0,1-5.2-2.68,10.39,10.39,0,0,1-2.86-5.26l-.12-2,.12-33.54a10.35,10.35,0,0,1,2.86-5.26,8.59,8.59,0,0,1,5.2-2.69l2-.23v.11h14.14V49l2,.23a8.62,8.62,0,0,1,5.2,2.69,10.35,10.35,0,0,1,2.86,5.26l.12,2-.12,33.54A10.39,10.39,0,0,1,426,98a8.55,8.55,0,0,1-5.2,2.68l-2,.24v-.12H404.68Zm14.14-7.25,1.17-.23a2.88,2.88,0,0,0,1.63-1.52l.12-1.17h.12V59.18h-.12l-.12-1.06A2.84,2.84,0,0,0,420,56.49l-1.17-.24H404.68l-1.17.24a3.37,3.37,0,0,0-1.64,1.63l-.11,1.06h-.12V90.73h.12l.11,1.17a2.85,2.85,0,0,0,1.64,1.52l1.17.23Z"/><polygon class="cls-1" points="135.09 139.93 146.09 139.93 159.18 129.38 124.03 102.11 124.03 74.11 113.03 84.93 113.03 102.11 148.18 129.38 135.09 139.93"/><polygon class="cls-1" points="90.9 148.81 92.19 150.23 96.38 146.44 95.09 145.02 63.29 109.93 61.84 108.33 57.66 112.12 59.11 113.72 90.9 148.81"/><path class="cls-1" d="M47.3,49V171h122V49Zm117,117.8H106.86l3.23-26.88h14.35l13.09-10.55-35.15-27.27v-28L67.16,108.74l28.26,31.19h3.67l-3.23,26.88H85.22l2-16.61L57.9,117.85l-5.6,5.5V53.15h112Z"/><path class="cls-1" d="M185.85,171V119.09l26.34.12a10.32,10.32,0,0,1,5.27,2.87,8.56,8.56,0,0,1,2.69,5.21l.24,2h-.12v9.25h.12l-.24,1.87a8.56,8.56,0,0,1-2.69,5.21,10.4,10.4,0,0,1-5.27,2.87l-1.75.11v.12H193V171Zm24.35-29.51,1.06-.23a2.2,2.2,0,0,0,1.64-1.64l.23-1.05v-9.25l-.23-1.17a2.85,2.85,0,0,0-1.64-1.64l-1.06-.12v-.12H193v15.22Z"/><path class="cls-1" d="M226.71,171V119.09h7.14v44.72h27.4V171Z"/><path class="cls-1" d="M302,171h-7.26V158.08H274.59V171h-7.14V155.62L281.27,119h7L302,155.62Zm-9.37-20-8-21.19-7.84,21.19Z"/><path class="cls-1" d="M324.11,171V126.23H310.42v-7.14H345v7.14H331.26V171Z"/><path class="cls-1" d="M352.09,171V119.09h34.54v7.14H359.24v15.22h20.13v7.14H359.24V171Z"/><path class="cls-1" d="M402.44,171l-2-.24a8.54,8.54,0,0,1-5.21-2.69,10.32,10.32,0,0,1-2.87-5.27l-.12-2,.12-33.6a10.32,10.32,0,0,1,2.87-5.27,8.54,8.54,0,0,1,5.21-2.69l2-.24v.12H416.6V119l2,.24a8.56,8.56,0,0,1,5.21,2.69,10.4,10.4,0,0,1,2.87,5.27l.12,2-.12,33.6A10.4,10.4,0,0,1,423.8,168a8.56,8.56,0,0,1-5.21,2.69l-2,.24v-.12H402.44Zm14.16-7.26,1.17-.24a2.86,2.86,0,0,0,1.64-1.52l.12-1.17h.12V129.16h-.12l-.12-1a2.82,2.82,0,0,0-1.64-1.64l-1.17-.24H402.44l-1.17.24a3.31,3.31,0,0,0-1.64,1.64l-.12,1h-.12v31.61h.12l.12,1.17a2.8,2.8,0,0,0,1.64,1.52l1.17.24Z"/><path class="cls-1" d="M462.14,171l-9.95-22.37h-9.6V171h-7.14V119.09l26.34.12q7.14,1.52,8,8.08l.24,1.87h-.12v9.37H470l-.24,1.87q-.81,6.56-8,8.08l-1.76.11L470,171Zm-2.34-29.51,1.06-.23a2.83,2.83,0,0,0,1.63-1.64l.24-1.05v-9.37l-.24-1a2.83,2.83,0,0,0-1.63-1.64l-1.06-.12v-.12H442.59v15.22Z"/><path class="cls-1" d="M506.16,171V141.1l-10.07,29.39L486,141.1V171h-7.15V119.09H486l10.06,29.27,10.07-29.27h7.26V171Z"/><path class="cls-1" d="M532.74,171l-2-.24a8.56,8.56,0,0,1-5.21-2.69,10.4,10.4,0,0,1-2.87-5.27l-.12-2,.12-33.6a10.4,10.4,0,0,1,2.87-5.27,8.56,8.56,0,0,1,5.21-2.69l2-.24v.12H546.9V119l2,.24a8.56,8.56,0,0,1,5.21,2.69,10.32,10.32,0,0,1,2.87,5.27l.12,2-.12,33.6A10.32,10.32,0,0,1,554.1,168a8.56,8.56,0,0,1-5.21,2.69l-2,.24v-.12H532.74Zm14.16-7.26,1.17-.24a2.86,2.86,0,0,0,1.64-1.52l.12-1.17H550V129.16h-.12l-.12-1a2.82,2.82,0,0,0-1.64-1.64l-1.17-.24H532.74l-1.17.24a3.31,3.31,0,0,0-1.64,1.64l-.12,1h-.12v31.61h.12l.12,1.17a2.8,2.8,0,0,0,1.64,1.52l1.17.24Z"/><path class="cls-1" d="M565.75,171V119.09l26.34.12a10.32,10.32,0,0,1,5.27,2.87,8.56,8.56,0,0,1,2.69,5.21l.24,2h-.12v9.25h.12l-.24,1.87a8.56,8.56,0,0,1-2.69,5.21,10.4,10.4,0,0,1-5.27,2.87l-1.75.11v.12H572.89V171Zm24.35-29.51,1.06-.23a2.2,2.2,0,0,0,1.64-1.64l.23-1.05v-9.25l-.23-1.17a2.85,2.85,0,0,0-1.64-1.64l-1.06-.12v-.12H572.89v15.22Z"/><path class="cls-1" d="M616.91,171l-2-.24q-6.67-.81-8.08-8l-.11-2v-2.11h7.14v2.11H614l.11,1.17a2.82,2.82,0,0,0,1.64,1.52l1.17.24h14.17l1.17-.24a2.82,2.82,0,0,0,1.64-1.52l.12-1.17h.11v-9.25H634l-.12-1.05a3.35,3.35,0,0,0-1.64-1.64l-1.17-.24v-.11l-16.16-.12a10.25,10.25,0,0,1-8.08-8.08l-.11-1.87v-9.25l.11-2a10.4,10.4,0,0,1,2.87-5.27,8.56,8.56,0,0,1,5.21-2.69l2-.24v.12h14.17V119l2,.24a8.56,8.56,0,0,1,5.21,2.69,10.4,10.4,0,0,1,2.87,5.27l.12,2v1.76h-7.15v-1.76H634l-.12-1a2.82,2.82,0,0,0-1.64-1.64l-1.17-.24H616.91l-1.17.24a2.81,2.81,0,0,0-1.64,1.64l-.11,1h-.12v9.25H614l.11,1.05a2.82,2.82,0,0,0,1.64,1.64l1.17.24h14.4l1.76.23a8.56,8.56,0,0,1,5.21,2.69,10.4,10.4,0,0,1,2.87,5.27l.12,2v9.25l-.12,2q-1.53,7.14-8.08,8l-2,.24Z"/></svg>